# Blender v2.91.2 OBJ File: ''
# www.blender.org
o Cube_Cube.001
v -1.000000 -1.000000 1.370359
v -1.333429 1.000000 1.000000
v -1.000000 -1.000000 -1.000000
v -1.000000 1.000000 -1.000000
v 1.000000 -1.000000 1.000000
v 1.000000 1.000000 1.000000
v 1.000000 -1.000000 -1.000000
v 1.000000 1.000000 -1.000000
v -1.445804 -1.000000 0.000000
v -1.410835 0.000000 1.170944
v -1.000000 1.000000 0.000000
v -1.000000 0.000000 -1.000000
v 0.000000 -1.000000 -1.000000
v 0.000000 1.000000 -1.000000
v 1.113077 0.000000 -1.125542
v 1.000000 -1.000000 0.000000
v 1.000000 1.000000 0.000000
v 1.506014 0.000000 1.521320
v 0.000000 -1.000000 1.000000
v 0.000000 1.000000 1.000000
v 0.000000 1.624708 0.000000
v 0.000000 -1.000000 0.000000
v 0.000000 0.000000 1.000000
v 1.000000 0.000000 0.000000
v 0.000000 0.000000 -1.430693
v -1.000000 0.000000 0.000000
v 0.500000 1.000000 -1.000000
v 0.500000 -1.000000 1.000000
v 0.500000 -1.000000 -1.000000
v 0.500000 1.000000 1.000000
v 0.725155 1.521024 0.000000
v 0.500000 -1.000000 0.000000
v 0.753007 0.000000 1.260660
v 0.556538 0.000000 -1.278117
vt 0.625000 0.125000
vt 0.500000 0.250000
vt 0.500000 0.125000
vt 0.500000 0.437500
vt 0.625000 0.500000
vt 0.500000 0.500000
vt 0.500000 0.625000
vt 0.625000 0.750000
vt 0.500000 0.750000
vt 0.500000 0.875000
vt 0.625000 1.000000
vt 0.500000 1.000000
vt 0.375000 0.625000
vt 0.312500 0.750000
vt 0.312500 0.625000
vt 0.875000 0.625000
vt 0.750000 0.750000
vt 0.750000 0.625000
vt 0.687500 0.750000
vt 0.687500 0.625000
vt 0.687500 0.500000
vt 0.750000 0.500000
vt 0.125000 0.625000
vt 0.250000 0.750000
vt 0.125000 0.750000
vt 0.125000 0.500000
vt 0.250000 0.625000
vt 0.375000 0.500000
vt 0.312500 0.500000
vt 0.375000 1.000000
vt 0.375000 0.875000
vt 0.375000 0.812500
vt 0.625000 0.812500
vt 0.500000 0.812500
vt 0.375000 0.750000
vt 0.375000 0.437500
vt 0.375000 0.375000
vt 0.375000 0.250000
vt 0.625000 0.375000
vt 0.500000 0.375000
vt 0.375000 0.125000
vt 0.500000 0.000000
vt 0.375000 0.000000
vt 0.625000 0.000000
vt 0.250000 0.500000
vt 0.625000 0.625000
vt 0.625000 0.250000
vt 0.625000 0.437500
vt 0.625000 0.875000
vt 0.875000 0.750000
vt 0.875000 0.500000
vn -1.0000 0.0000 0.0000
vn 0.2614 0.1493 -0.9536
vn 0.9049 0.3010 -0.3010
vn 0.1188 0.1584 0.9802
vn 0.0000 -1.0000 0.0000
vn -0.4682 0.7494 0.4682
vn 0.1241 0.8683 0.4803
vn 0.1241 0.8683 -0.4803
vn -0.4682 0.7494 -0.4682
vn 0.3473 0.0000 0.9378
vn 0.0000 0.0000 1.0000
vn -0.3228 0.1614 0.9326
vn 1.0000 0.0000 0.0000
vn 0.9901 0.0995 0.0995
vn 0.0000 -0.2679 -0.9634
vn 0.0000 0.0000 -1.0000
vn -0.3678 0.3678 -0.8540
vn -0.8459 0.3771 -0.3771
vn -0.9033 -0.3125 0.2939
vn -0.9435 0.0164 -0.3310
vn -0.3109 0.3109 0.8982
vn 0.0000 -0.2522 0.9677
vn 0.0000 1.0000 0.0000
vn 0.2442 0.3836 -0.8906
vn 0.0000 0.2679 -0.9634
vn 0.0000 0.8481 0.5298
vn 0.0000 0.8481 -0.5298
vn 0.1168 0.2401 0.9637
vn -0.3228 -0.1614 0.9326
vn 0.9049 -0.3010 -0.3010
vn 0.9901 -0.0995 0.0995
vn 0.2614 -0.1493 -0.9536
vn -0.3678 -0.3678 -0.8540
vn -0.8698 0.3878 -0.3052
vn -0.9487 0.0000 -0.3163
vn 0.2442 -0.3836 -0.8906
vn 0.0000 0.2522 0.9677
vn -0.3109 -0.3109 0.8982
vn 0.8089 0.4267 -0.4045
vn 0.8089 0.4267 0.4045
s off
f 11/1/1 12/2/1 26/3/1
f 34/4/2 8/5/2 15/6/2
f 24/7/3 6/8/3 18/9/3
f 23/10/4 2/11/4 10/12/4
f 16/13/5 28/14/5 32/15/5
f 11/16/6 20/17/6 21/18/6
f 21/18/7 30/19/7 31/20/7
f 27/21/8 21/18/8 31/20/8
f 14/22/9 11/16/9 21/18/9
f 9/23/5 19/24/5 1/25/5
f 3/26/5 22/27/5 9/23/5
f 7/28/5 32/15/5 29/29/5
f 23/10/10 1/30/10 19/31/10
f 28/32/11 23/10/11 19/31/11
f 30/33/12 23/10/12 33/34/12
f 24/7/13 5/35/13 16/13/13
f 7/28/13 24/7/13 16/13/13
f 8/5/14 24/7/14 15/6/14
f 34/4/15 7/28/15 29/36/15
f 12/2/16 13/37/16 3/38/16
f 12/2/17 14/39/17 25/40/17
f 26/3/18 3/38/18 9/41/18
f 10/42/19 9/41/19 1/43/19
f 2/44/20 26/3/20 10/42/20
f 13/37/15 34/4/15 29/36/15
f 6/8/21 33/34/21 18/9/21
f 5/35/22 33/34/22 28/32/22
f 29/29/5 22/27/5 13/45/5
f 27/21/23 17/46/23 8/5/23
f 17/46/23 30/19/23 6/8/23
f 32/15/5 19/24/5 22/27/5
f 14/39/24 34/4/24 25/40/24
f 11/1/1 4/47/1 12/2/1
f 34/4/25 27/48/25 8/5/25
f 24/7/13 17/46/13 6/8/13
f 23/10/11 20/49/11 2/11/11
f 16/13/5 5/35/5 28/14/5
f 11/16/23 2/50/23 20/17/23
f 21/18/26 20/17/26 30/19/26
f 27/21/27 14/22/27 21/18/27
f 14/22/23 4/51/23 11/16/23
f 9/23/5 22/27/5 19/24/5
f 3/26/5 13/45/5 22/27/5
f 7/28/5 16/13/5 32/15/5
f 23/10/28 10/12/28 1/30/28
f 28/32/29 33/34/29 23/10/29
f 30/33/11 20/49/11 23/10/11
f 24/7/30 18/9/30 5/35/30
f 7/28/31 15/6/31 24/7/31
f 8/5/13 17/46/13 24/7/13
f 34/4/32 15/6/32 7/28/32
f 12/2/33 25/40/33 13/37/33
f 12/2/16 4/47/16 14/39/16
f 26/3/1 12/2/1 3/38/1
f 10/42/34 26/3/34 9/41/34
f 2/44/35 11/1/35 26/3/35
f 13/37/36 25/40/36 34/4/36
f 6/8/37 30/33/37 33/34/37
f 5/35/38 18/9/38 33/34/38
f 29/29/5 32/15/5 22/27/5
f 27/21/39 31/20/39 17/46/39
f 17/46/40 31/20/40 30/19/40
f 32/15/5 28/14/5 19/24/5
f 14/39/25 27/48/25 34/4/25
